<svg width="16" height="16" viewBox="0 0 16 16" fill="none" xmlns="http://www.w3.org/2000/svg">
<path d="M4.35355 7.0203C4.15829 7.21556 3.84171 7.21556 3.64645 7.0203C3.45118 6.82504 3.45118 6.50846 3.64645 6.3132L4.35355 7.0203ZM8 2.66675L7.64645 2.31319L8 1.95964L8.35355 2.31319L8 2.66675ZM12.3536 6.31319C12.5488 6.50846 12.5488 6.82504 12.3536 7.0203C12.1583 7.21556 11.8417 7.21556 11.6464 7.0203L12.3536 6.31319ZM8.5 12.6667C8.5 12.9429 8.27614 13.1667 8 13.1667C7.72386 13.1667 7.5 12.9429 7.5 12.6667L8.5 12.6667ZM3.64645 6.3132L7.64645 2.31319L8.35355 3.0203L4.35355 7.0203L3.64645 6.3132ZM8.35355 2.31319L12.3536 6.31319L11.6464 7.0203L7.64645 3.0203L8.35355 2.31319ZM8.5 2.66675L8.5 12.6667L7.5 12.6667L7.5 2.66675L8.5 2.66675Z" fill="white"/>
</svg>
